<svg display="none" xmlns="http://www.w3.org/2000/svg">
 <symbol id="mastodon-svg-logo-full" viewBox="0 0 713.4 175.9" id=".27017962172736687" xmlns="http://www.w3.org/2000/svg">
 <path class="ast0" d="M160.6 105.4c-2.4 12.4-21.6 26-43.6 28.6-11.5 1.4-22.8 2.6-34.9 2.1-19.7-.9-35.3-4.7-35.3-4.7 0 1.9.1 3.8.4 5.5 2.6 19.5 19.3 20.6 35.2 21.2 16 .5 30.3-3.9 30.3-3.9l.7 14.5s-11.2 6-31.1 7.1c-11 .6-24.7-.3-40.6-4.5C7 162.1 1.1 125.3.2 88-.1 76.9.1 66.5.1 57.7c0-38.2 25-49.3 25-49.3C37.7 2.6 59.3.2 81.8 0h.6c22.5.2 44.1 2.6 56.7 8.4 0 0 25 11.2 25 49.3-.1 0 .3 28.2-3.5 47.7" fill="#e7b01c"/>
 <path class="ast1" d="M34.7 48.5c0-5.6 4.5-10.1 10.1-10.1s10.1 4.5 10.1 10.1-4.5 10.1-10.1 10.1c-5.6-.1-10.1-4.6-10.1-10.1m144.2 12.2v46.2h-18.3V62.1c0-9.5-4-14.2-11.9-14.2-8.8 0-13.2 5.7-13.2 16.9v24.5h-18.2V64.8c0-11.3-4.4-16.9-13.2-16.9-8 0-11.9 4.8-11.9 14.2v44.8H73.8V60.7c0-9.4 2.4-16.9 7.2-22.5 5-5.5 11.5-8.4 19.6-8.4 9.4 0 16.5 3.6 21.1 10.8l4.6 7.6 4.6-7.6c4.7-7.2 11.8-10.8 21.1-10.8 8.1 0 14.6 2.8 19.6 8.4 4.9 5.6 7.3 13.1 7.3 22.5m63 23c3.8-4 5.6-9 5.6-15.1s-1.8-11.1-5.6-14.9c-3.6-4-8.3-5.9-13.8-5.9-5.6 0-10.2 1.9-13.8 5.9-3.6 3.8-5.5 8.9-5.5 14.9s1.8 11.1 5.5 15.1c3.6 3.8 8.3 5.8 13.8 5.8 5.6-.1 10.2-2 13.8-5.8m5.6-52.1h18v73.9h-18v-8.7c-5.5 7.2-13 10.8-22.8 10.8-9.4 0-17.3-3.7-24.1-11.2-6.6-7.5-9.9-16.8-9.9-27.8 0-10.8 3.4-20.1 9.9-27.6 6.7-7.5 14.7-11.4 24.1-11.4 9.8 0 17.3 3.5 22.8 10.8v-8.8zm78.8 35.7c5.3 4 8 9.6 7.8 16.7 0 7.5-2.7 13.4-8.1 17.6-5.5 4-12 6.1-20 6.1-14.4 0-24.2-5.9-29.4-17.6l15.7-9.3c2.1 6.4 6.7 9.6 13.7 9.6 6.4 0 9.7-2.1 9.7-6.4 0-3.1-4.2-5.9-12.7-8.1-3.2-.9-5.9-1.8-8-2.5-2.9-1.2-5.5-2.5-7.6-4.1-5.2-4-7.8-9.3-7.8-16.1 0-7.2 2.5-13 7.6-17.1 5.2-4.3 11.5-6.4 19-6.4 12 0 20.8 5.2 26.6 15.7l-15.4 8.9c-2.2-5-6-7.5-11.2-7.5-5.5 0-8.1 2.1-8.1 6.1 0 3.1 4.2 5.9 12.7 8.1 6.5 1.2 11.7 3.4 15.5 6.3M383.6 50h-15.8v30.7c0 3.7 1.4 5.9 4.1 6.9 2 .7 5.9.9 11.8.6v17.3c-12.2 1.5-21 .3-26.2-3.7-5.2-3.8-7.7-10.9-7.7-21.1V50h-12.2V31.6h12.2V16.7l18-5.8v20.7h15.8V50zm57.5 33.2c3.6-3.8 5.5-8.7 5.5-14.6s-1.8-10.8-5.5-14.6c-3.6-3.8-8.1-5.8-13.6-5.8s-9.9 1.9-13.6 5.8c-3.5 4-5.3 8.9-5.3 14.6 0 5.8 1.8 10.6 5.3 14.6 3.6 3.8 8.1 5.8 13.6 5.8s10-1.9 13.6-5.8m-39.8 13.2c-7.1-7.5-10.6-16.7-10.6-27.8 0-10.9 3.5-20.1 10.6-27.6s15.9-11.4 26.3-11.4 19.2 3.8 26.3 11.4c7.1 7.5 10.8 16.8 10.8 27.6 0 10.9-3.6 20.2-10.8 27.8-7.1 7.5-15.8 11.2-26.3 11.2s-19.2-3.7-26.3-11.2m123.6-12.7c3.6-4 5.5-9 5.5-15.1s-1.8-11.1-5.5-14.9c-3.6-4-8.3-5.9-13.8-5.9-5.6 0-10.2 1.9-14 5.9-3.6 3.8-5.5 8.9-5.5 14.9s1.8 11.1 5.5 15.1c3.8 3.8 8.5 5.8 14 5.8 5.6-.1 10.2-2 13.8-5.8m5.5-81.6h18v103.5h-18v-8.7c-5.3 7.2-12.9 10.8-22.7 10.8-9.4 0-17.5-3.7-24.2-11.2-6.6-7.5-9.9-16.8-9.9-27.8 0-10.8 3.4-20.1 9.9-27.6 6.7-7.5 14.8-11.4 24.2-11.4 9.8 0 17.3 3.5 22.7 10.8V2.1zm81.4 81.1c3.6-3.8 5.5-8.7 5.5-14.6s-1.8-10.8-5.5-14.6c-3.6-3.8-8.1-5.8-13.6-5.8s-9.9 1.9-13.6 5.8c-3.5 4-5.3 8.9-5.3 14.6 0 5.8 1.8 10.6 5.3 14.6 3.6 3.8 8.1 5.8 13.6 5.8s10-1.9 13.6-5.8m-39.9 13.2c-7.1-7.5-10.6-16.7-10.6-27.8 0-10.9 3.5-20.1 10.6-27.6s15.9-11.4 26.3-11.4 19.2 3.8 26.3 11.4 10.8 16.8 10.8 27.6c0 10.9-3.6 20.2-10.8 27.8-7.1 7.5-15.8 11.2-26.3 11.2s-19.1-3.7-26.3-11.2m141.5-36.2v45.4h-18v-43c0-4.9-1.3-8.6-3.8-11.4-2.4-2.5-5.7-3.8-10.1-3.8-10.2 0-15.4 6.1-15.4 18.3v39.9h-18v-74h18v8.3c4.3-6.9 11.2-10.3 20.8-10.3 7.7 0 14 2.7 18.9 8.1 5 5.5 7.6 12.9 7.6 22.5" fill="#fff"/>
 </symbol>
</svg>
